<svg width="44" height="66" viewBox="0 0 44 66" fill="none" xmlns="http://www.w3.org/2000/svg">
<g clip-path="url(#clip0_205_2)">
<path d="M11.151 65.9062C17.1684 65.9062 22.0521 61.0225 22.0521 55.0052V44.1041H11.151C5.13367 44.1041 0.25 48.9878 0.25 55.0052C0.25 61.0225 5.13367 65.9062 11.151 65.9062Z" fill="#0ACF83"/>
<path d="M0.25 33.2032C0.25 27.1858 5.13367 22.3021 11.151 22.3021H22.0521V44.1042H11.151C5.13367 44.1042 0.25 39.2205 0.25 33.2032Z" fill="#A259FF"/>
<path d="M0.25 11.401C0.25 5.38367 5.13367 0.5 11.151 0.5H22.0521V22.3021H11.151C5.13367 22.3021 0.25 17.4184 0.25 11.401Z" fill="#F24E1E"/>
<path d="M22.052 0.5H32.953C38.9704 0.5 43.8541 5.38367 43.8541 11.401C43.8541 17.4184 38.9704 22.3021 32.953 22.3021H22.052V0.5Z" fill="#FF7262"/>
<path d="M43.8541 33.2032C43.8541 39.2205 38.9704 44.1042 32.953 44.1042C26.9357 44.1042 22.052 39.2205 22.052 33.2032C22.052 27.1858 26.9357 22.3021 32.953 22.3021C38.9704 22.3021 43.8541 27.1858 43.8541 33.2032Z" fill="#1ABCFE"/>
</g>
<defs>
<clipPath id="clip0_205_2">
<rect width="43.6042" height="65.4063" fill="white" transform="translate(0.25 0.5)"/>
</clipPath>
</defs>
</svg>
